<?xml version="1.0" standalone="no"?>
<!DOCTYPE svg PUBLIC "-//W3C//DTD SVG 20010904//EN"
 "http://www.w3.org/TR/2001/REC-SVG-20010904/DTD/svg10.dtd">
<svg version="1.0" xmlns="http://www.w3.org/2000/svg"
 width="593.000000pt" height="593.000000pt" viewBox="0 0 593.000000 593.000000"
 preserveAspectRatio="xMidYMid meet">
<metadata>
Created by potrace 1.11, written by Peter Selinger 2001-2013
</metadata>
<g transform="translate(0.000000,593.000000) scale(0.100000,-0.100000)"
fill="#000000" stroke="none">
<path d="M0 5881 c0 -28 5 -53 10 -56 14 -9 12 -49 -2 -64 -11 -10 -10 -11 3
-6 26 10 34 -15 10 -31 -17 -13 -21 -25 -21 -75 0 -35 4 -59 11 -59 6 0 24 14
41 30 17 17 32 29 35 26 9 -9 -22 -46 -54 -63 l-33 -18 0 -221 c0 -202 1 -222
17 -220 12 1 17 -7 17 -29 1 -28 4 -30 40 -33 22 -2 50 -12 63 -22 24 -19 36
-18 132 12 28 9 35 8 43 -6 5 -9 18 -16 28 -16 24 0 34 -16 35 -61 1 -30 -3
-38 -28 -49 -16 -7 -52 -16 -80 -20 l-52 -8 66 0 c36 1 71 -2 77 -6 6 -4 17 2
24 14 7 11 16 20 20 20 17 0 6 -22 -27 -57 -19 -20 -35 -32 -35 -27 0 8 -11 8
-35 0 -19 -6 -35 -15 -35 -19 0 -5 6 -5 13 -2 6 4 3 -1 -7 -9 -11 -9 -26 -16
-34 -16 -7 0 -10 -4 -7 -10 3 -5 2 -10 -3 -10 -6 0 -12 6 -15 13 -7 18 -54 20
-61 2 -3 -8 -1 -15 5 -15 6 0 23 -10 37 -21 l27 -22 -30 7 c-30 8 -84 55 -89
78 -6 27 -19 48 -30 48 -6 0 -25 17 -43 37 l-32 38 -1 -1745 c0 -1471 2 -1742
14 -1730 50 55 126 142 156 179 53 67 132 155 146 164 7 4 23 24 35 45 13 20
40 52 61 70 21 19 38 42 38 52 0 11 9 24 20 30 11 6 20 17 20 25 0 7 15 22 33
34 42 26 103 91 157 166 42 58 90 113 339 389 139 156 205 228 331 365 52 57
96 106 97 110 2 3 -34 22 -80 42 -45 20 -122 55 -172 77 -135 60 -268 112
-287 112 -9 0 -37 -16 -62 -35 -26 -19 -53 -35 -60 -35 -19 0 -25 21 -12 42 6
11 7 29 0 54 -9 36 -13 39 -129 91 -160 71 -191 107 -142 165 20 23 38 29 182
54 88 15 161 28 163 29 4 3 -49 99 -67 120 -9 11 -26 37 -36 58 -11 20 -23 37
-26 37 -4 0 -14 19 -23 41 -9 23 -30 61 -46 85 -17 23 -30 49 -30 57 0 7 -11
19 -24 27 -13 7 -32 29 -43 49 -10 20 -33 54 -50 75 -18 22 -33 45 -33 53 0 7
-11 20 -25 29 -14 9 -25 21 -25 28 0 10 -24 43 -173 240 -71 95 -85 122 -69
138 9 9 12 9 12 -1 0 -8 6 -11 15 -7 8 3 15 1 15 -4 0 -6 8 -10 18 -10 13 0
14 -2 4 -9 -11 -6 -6 -14 17 -30 17 -12 36 -19 42 -15 7 4 9 3 6 -3 -4 -6 0
-16 8 -23 8 -7 15 -10 15 -7 0 4 21 -3 46 -13 56 -24 92 -25 138 -4 41 20 66
13 65 -18 0 -13 1 -37 4 -54 6 -35 0 -48 -26 -57 -9 -3 -17 -13 -17 -22 0 -8
-8 -15 -17 -15 -13 0 -14 3 -6 8 8 5 -2 8 -25 9 -31 1 -33 -1 -15 -8 14 -5 23
-17 23 -30 0 -18 -4 -20 -25 -15 -28 7 -35 -11 -7 -21 9 -3 25 -13 34 -21 10
-8 35 -16 55 -18 21 -2 40 -3 43 -4 3 0 -2 -5 -10 -10 -12 -8 -9 -10 12 -10
17 0 34 9 47 26 19 24 20 25 30 5 14 -26 14 -54 -1 -69 -9 -9 -9 -12 0 -12 9
0 9 -5 0 -21 -9 -13 -20 -19 -36 -16 -14 3 -21 0 -19 -7 2 -6 21 -10 43 -8 33
2 36 0 20 -9 -15 -9 -16 -13 -5 -20 9 -6 -1 -9 -28 -9 -25 0 -43 -5 -43 -11 0
-6 9 -9 20 -6 11 3 23 0 27 -5 3 -7 1 -8 -5 -4 -7 4 -12 2 -12 -3 0 -16 46
-13 80 4 39 20 48 2 16 -30 -18 -18 -36 -25 -63 -25 l-38 0 29 -15 c34 -18 70
-20 60 -3 -5 7 -2 9 8 5 9 -3 21 0 27 6 8 8 11 8 11 -1 0 -6 6 -9 13 -6 9 3
19 -15 32 -58 11 -35 25 -67 32 -71 25 -15 13 -38 -29 -58 l-43 -20 43 5 c25
4 42 2 42 -4 0 -5 -4 -10 -10 -10 -5 0 -10 -4 -10 -9 0 -5 9 -7 20 -4 11 3 20
10 20 15 0 5 5 6 10 3 13 -8 13 -51 0 -75 -10 -18 -8 -19 20 -14 20 4 30 3 30
-5 0 -7 -4 -9 -10 -6 -6 4 -7 -2 -1 -18 7 -18 5 -28 -7 -41 -23 -23 0 -20 31
4 16 13 28 16 32 10 3 -5 15 -10 26 -10 14 0 19 -7 19 -25 0 -14 5 -25 10 -25
6 0 10 4 10 9 0 5 9 11 21 14 12 3 18 10 14 16 -3 6 -1 11 4 11 6 0 11 -7 11
-15 0 -10 10 -15 30 -15 34 0 39 -16 13 -37 -16 -13 -14 -14 22 -8 53 9 65 18
35 26 -17 5 -5 7 35 7 33 0 78 4 100 10 37 9 33 10 -45 11 -77 1 -86 3 -87 20
-1 16 8 22 48 30 28 6 57 11 64 11 8 0 15 4 15 9 0 4 15 12 33 17 l32 10 3
244 c3 264 -14 755 -50 1458 l-22 442 -663 0 -663 0 0 -49z m784 -145 c-6 -15
-7 -15 -20 1 -7 10 -13 32 -14 48 l0 30 20 -31 c12 -18 18 -39 14 -48z m16
-84 c0 -15 -2 -15 -10 -2 -13 20 -13 33 0 25 6 -3 10 -14 10 -23z m63 -70 c4
-21 3 -31 -3 -27 -6 3 -10 20 -10 37 0 38 5 34 13 -10z m64 -294 c-3 -8 -6 -5
-6 6 -1 11 2 17 5 13 3 -3 4 -12 1 -19z m10 -40 c-3 -8 -6 -5 -6 6 -1 11 2 17
5 13 3 -3 4 -12 1 -19z m13 -28 c0 -5 -2 -10 -4 -10 -3 0 -8 5 -11 10 -3 6 -1
10 4 10 6 0 11 -4 11 -10z m38 -165 c18 -71 52 -218 77 -325 25 -107 63 -271
85 -365 94 -403 132 -577 127 -581 -3 -3 -17 48 -32 113 -15 65 -41 172 -57
238 -16 66 -31 131 -33 145 -2 14 -18 84 -34 155 -87 372 -113 481 -140 600
-16 72 -33 139 -37 150 -5 14 -4 17 3 10 6 -5 24 -68 41 -140z m-608 -235 c0
-5 -7 -10 -16 -10 -8 0 -12 5 -9 10 3 6 10 10 16 10 5 0 9 -4 9 -10z m970
-284 c0 -11 -19 -15 -25 -6 -3 5 1 10 9 10 9 0 16 -2 16 -4z m-640 -42 c0 -8
-5 -12 -10 -9 -6 4 -8 11 -5 16 9 14 15 11 15 -7z m-170 -100 c0 -8 -4 -14
-10 -14 -5 0 -10 2 -10 4 0 2 -3 12 -6 20 -5 12 -2 15 10 10 9 -3 16 -12 16
-20z m610 -679 c0 -8 -7 -15 -15 -15 -8 0 -15 7 -15 15 0 8 7 15 15 15 8 0 15
-7 15 -15z"/>
<path d="M1445 5093 c3 -461 2 -946 -2 -1078 -5 -132 -9 -241 -8 -241 0 -1 34
5 76 14 l75 16 18 115 c9 64 26 177 36 251 11 74 26 176 35 225 19 113 95 587
141 885 43 274 93 585 100 623 l6 27 -242 0 -241 0 6 -837z"/>
<path d="M1945 5908 c-3 -13 -12 -68 -20 -123 -18 -127 -73 -470 -124 -785
-22 -135 -58 -360 -80 -500 -23 -140 -57 -352 -76 -470 -19 -118 -33 -215 -31
-217 1 -1 101 18 222 43 120 25 264 52 319 59 55 8 224 32 375 54 151 22 361
47 465 56 105 9 200 18 211 20 20 4 22 13 28 127 22 402 43 670 91 1168 9 85
19 200 25 255 10 107 27 263 35 308 l5 27 -720 0 -720 0 -5 -22z"/>
<path d="M5595 5488 c-181 -184 -373 -379 -425 -433 -225 -238 -734 -760 -849
-872 -69 -67 -124 -123 -121 -126 3 -2 154 -17 335 -31 182 -15 404 -36 495
-47 91 -11 179 -22 195 -23 35 -4 216 -46 499 -117 109 -27 200 -48 202 -46 2
2 3 459 2 1016 l-3 1012 -330 -333z"/>
<path d="M15 5024 c41 -33 146 -75 197 -81 59 -6 124 14 134 42 10 24 -5 31
-20 9 -12 -16 -27 -19 -103 -19 -80 0 -94 3 -151 33 -68 35 -89 41 -57 16z"/>
<path d="M299 4567 c57 -62 187 -76 238 -24 15 14 22 30 18 37 -5 8 -12 2 -22
-18 -25 -52 -118 -50 -213 5 l-45 26 24 -26z"/>
<path d="M540 4500 c-9 -6 -10 -10 -3 -10 6 0 15 5 18 10 8 12 4 12 -15 0z"/>
<path d="M495 4310 c27 -12 43 -12 25 0 -8 5 -22 9 -30 9 -10 0 -8 -3 5 -9z"/>
<path d="M560 4186 c0 -3 9 -10 20 -16 11 -6 20 -8 20 -6 0 3 -9 10 -20 16
-11 6 -20 8 -20 6z"/>
<path d="M4130 3989 c0 -14 62 -21 143 -18 45 2 88 0 95 -5 7 -4 61 -14 120
-21 108 -14 139 -18 247 -34 33 -5 62 -7 64 -5 11 10 -12 34 -34 34 -14 0 -25
5 -25 10 0 6 -5 10 -11 10 -6 0 -9 -7 -6 -15 8 -20 -10 -29 -20 -10 -7 11 -53
20 -188 35 -194 21 -385 30 -385 19z"/>
<path d="M3060 3964 c-63 -7 -143 -16 -177 -20 -35 -4 -63 -11 -63 -17 0 -6
24 -8 63 -4 34 3 124 11 200 18 103 9 137 15 137 25 0 16 -5 16 -160 -2z"/>
<path d="M4090 3955 c-10 -13 -9 -15 9 -15 11 0 21 4 21 9 0 18 -18 21 -30 6z"/>
<path d="M4840 3959 c0 -5 5 -7 10 -4 6 3 10 8 10 11 0 2 -4 4 -10 4 -5 0 -10
-5 -10 -11z"/>
<path d="M4941 3966 c2 -2 20 -6 39 -10 25 -4 31 -3 20 4 -14 9 -69 15 -59 6z"/>
<path d="M4155 3950 c4 -6 10 -8 15 -5 5 3 19 1 30 -5 11 -6 20 -7 20 -1 0 11
-24 21 -51 21 -11 0 -17 -5 -14 -10z"/>
<path d="M5111 3940 c53 -10 107 -21 120 -25 23 -7 23 -6 4 8 -11 8 -55 19
-98 26 -118 17 -135 11 -26 -9z"/>
<path d="M4817 3932 c1 -8 3 -17 3 -22 0 -13 44 -20 51 -8 11 17 1 28 -26 28
-13 0 -25 3 -28 8 -2 4 -2 1 0 -6z"/>
<path d="M2680 3909 c-47 -10 -67 -16 -45 -14 22 3 66 8 98 12 31 3 57 10 57
14 0 11 -7 11 -110 -12z"/>
<path d="M3162 3913 c-9 -13 -14 -15 -18 -5 -5 11 -34 18 -34 8 0 -2 -2 -10
-5 -18 -4 -10 8 -13 51 -13 51 0 57 2 60 23 3 17 -1 22 -19 22 -12 0 -28 -8
-35 -17z m38 -3 c0 -5 -5 -10 -11 -10 -5 0 -7 5 -4 10 3 6 8 10 11 10 2 0 4
-4 4 -10z"/>
<path d="M4065 3920 c-4 -6 9 -10 32 -9 30 0 34 2 18 9 -27 12 -43 12 -50 0z"/>
<path d="M5286 3920 c6 -6 96 -34 199 -61 103 -27 224 -60 270 -74 46 -14 90
-22 100 -18 11 4 16 3 12 -4 -3 -5 9 -15 28 -21 31 -9 35 -8 35 8 0 21 -32 30
-385 115 -125 30 -237 57 -249 61 -16 5 -18 3 -10 -6z"/>
<path d="M2803 3913 c8 -13 3 -14 -128 -34 -38 -5 -71 -12 -73 -13 -1 -2 35
-3 82 -2 47 0 82 5 79 10 -3 5 8 7 25 4 17 -2 29 -1 26 4 -3 4 7 9 23 9 21 1
23 3 8 6 -11 3 -26 10 -34 17 -11 8 -13 8 -8 -1z"/>
<path d="M2893 3903 c9 -2 23 -2 30 0 6 3 -1 5 -18 5 -16 0 -22 -2 -12 -5z"/>
<path d="M3023 3895 c0 -8 7 -15 15 -15 12 0 12 3 2 15 -7 8 -13 15 -15 15 -1
0 -2 -7 -2 -15z"/>
<path d="M4598 3903 c7 -3 16 -2 19 1 4 3 -2 6 -13 5 -11 0 -14 -3 -6 -6z"/>
<path d="M4298 3890 c13 -6 31 -6 45 0 18 7 14 9 -23 9 -37 0 -41 -2 -22 -9z"/>
<path d="M4956 3884 c-5 -12 -2 -15 10 -10 8 3 25 6 36 6 26 0 21 5 -13 14
-20 4 -29 1 -33 -10z"/>
<path d="M5275 3890 c3 -5 8 -10 11 -10 2 0 4 5 4 10 0 6 -5 10 -11 10 -5 0
-7 -4 -4 -10z"/>
<path d="M2108 3883 c6 -2 18 -2 25 0 6 3 1 5 -13 5 -14 0 -19 -2 -12 -5z"/>
<path d="M2548 3883 c7 -3 16 -2 19 1 4 3 -2 6 -13 5 -11 0 -14 -3 -6 -6z"/>
<path d="M4739 3881 c8 -5 21 -7 29 -3 10 3 13 1 8 -6 -4 -7 -1 -12 8 -12 10
0 13 6 10 15 -4 9 -19 15 -38 15 -22 0 -27 -3 -17 -9z"/>
<path d="M1826 3835 c-115 -25 -214 -49 -220 -55 -7 -7 -4 -10 8 -10 23 0 424
89 451 100 46 19 -37 7 -239 -35z"/>
<path d="M2963 3873 c9 -2 25 -2 35 0 9 3 1 5 -18 5 -19 0 -27 -2 -17 -5z"/>
<path d="M4826 3872 c-3 -5 9 -9 27 -9 26 -1 28 1 12 7 -27 11 -33 12 -39 2z"/>
<path d="M5058 3873 c6 -2 18 -2 25 0 6 3 1 5 -13 5 -14 0 -19 -2 -12 -5z"/>
<path d="M5115 3870 c-3 -5 1 -10 10 -10 9 0 13 5 10 10 -3 6 -8 10 -10 10 -2
0 -7 -4 -10 -10z"/>
<path d="M2830 3860 c-20 -6 -21 -8 -5 -8 11 0 29 3 40 8 25 11 -1 11 -35 0z"/>
<path d="M4930 3849 c0 -5 5 -7 10 -4 6 3 10 8 10 11 0 2 -4 4 -10 4 -5 0 -10
-5 -10 -11z"/>
<path d="M5189 3845 c42 -19 47 -19 31 0 -7 8 -24 15 -39 15 -25 -1 -25 -1 8
-15z"/>
<path d="M2960 3833 c-25 -3 -49 -8 -54 -13 -9 -9 54 -3 114 10 38 9 19 9 -60
3z"/>
<path d="M3098 3833 c6 -2 18 -2 25 0 6 3 1 5 -13 5 -14 0 -19 -2 -12 -5z"/>
<path d="M5005 3830 c3 -5 10 -10 16 -10 5 0 9 5 9 10 0 6 -7 10 -16 10 -8 0
-12 -4 -9 -10z"/>
<path d="M5258 3833 c7 -3 16 -2 19 1 4 3 -2 6 -13 5 -11 0 -14 -3 -6 -6z"/>
<path d="M4128 3823 c7 -3 16 -2 19 1 4 3 -2 6 -13 5 -11 0 -14 -3 -6 -6z"/>
<path d="M5315 3821 c11 -4 38 -11 60 -14 25 -4 33 -4 20 2 -11 4 -38 11 -60
14 -25 4 -33 4 -20 -2z"/>
<path d="M3173 3813 c9 -2 23 -2 30 0 6 3 -1 5 -18 5 -16 0 -22 -2 -12 -5z"/>
<path d="M4161 3803 c0 -11 3 -13 6 -5 7 17 23 15 23 -3 0 -15 12 -20 23 -9
12 12 -6 34 -29 34 -16 0 -24 -5 -23 -17z"/>
<path d="M4242 3804 c2 -12 13 -20 32 -22 19 -2 26 0 21 8 -4 6 -16 8 -27 4
-13 -4 -18 -2 -14 4 3 6 1 14 -5 17 -7 5 -10 0 -7 -11z"/>
<path d="M2160 3799 c-59 -8 -199 -45 -208 -54 -8 -8 40 -6 74 4 18 5 37 5 47
0 16 -9 67 7 67 22 0 4 9 5 20 2 29 -8 24 -31 -7 -35 -27 -3 -27 -3 -5 -10 16
-4 30 0 49 18 14 13 32 24 38 24 7 0 15 6 18 13 4 10 -2 13 -20 9 -18 -3 -24
-1 -19 7 4 6 6 10 4 10 -2 -1 -28 -5 -58 -10z"/>
<path d="M3108 3803 c7 -3 16 -2 19 1 4 3 -2 6 -13 5 -11 0 -14 -3 -6 -6z"/>
<path d="M3935 3800 c-3 -5 3 -10 14 -10 10 0 21 -4 23 -9 3 -8 446 -37 454
-28 2 2 -42 7 -98 11 -101 7 -322 32 -365 41 -12 3 -25 1 -28 -5z"/>
<path d="M2737 3794 c-16 -16 7 -20 60 -12 84 12 86 16 12 17 -36 1 -69 -2
-72 -5z"/>
<path d="M5428 3793 c7 -3 16 -2 19 1 4 3 -2 6 -13 5 -11 0 -14 -3 -6 -6z"/>
<path d="M3048 3769 c-101 -18 -153 -33 -83 -24 22 3 86 8 143 12 71 4 102 10
102 19 0 16 -42 14 -162 -7z"/>
<path d="M4368 3783 c6 -2 18 -2 25 0 6 3 1 5 -13 5 -14 0 -19 -2 -12 -5z"/>
<path d="M4410 3780 c0 -5 7 -10 16 -10 8 0 12 5 9 10 -3 6 -10 10 -16 10 -5
0 -9 -4 -9 -10z"/>
<path d="M5468 3783 c7 -3 16 -2 19 1 4 3 -2 6 -13 5 -11 0 -14 -3 -6 -6z"/>
<path d="M1520 3773 c-14 -3 -29 -9 -35 -15 -13 -13 86 0 100 13 9 9 -18 10
-65 2z"/>
<path d="M5525 3769 c17 -6 44 -17 62 -26 19 -9 39 -13 50 -8 13 6 -1 13 -52
26 -73 19 -111 24 -60 8z"/>
<path d="M4548 3763 c7 -3 16 -2 19 1 4 3 -2 6 -13 5 -11 0 -14 -3 -6 -6z"/>
<path d="M2810 3744 c-75 -20 -83 -25 -30 -20 25 3 61 12 80 20 44 19 22 19
-50 0z"/>
<path d="M4598 3753 c7 -3 16 -2 19 1 4 3 -2 6 -13 5 -11 0 -14 -3 -6 -6z"/>
<path d="M4630 3756 c0 -2 7 -7 16 -10 8 -3 12 -2 9 4 -6 10 -25 14 -25 6z"/>
<path d="M4478 3743 c7 -3 16 -2 19 1 4 3 -2 6 -13 5 -11 0 -14 -3 -6 -6z"/>
<path d="M4518 3743 c7 -3 16 -2 19 1 4 3 -2 6 -13 5 -11 0 -14 -3 -6 -6z"/>
<path d="M4688 3743 c7 -3 16 -2 19 1 4 3 -2 6 -13 5 -11 0 -14 -3 -6 -6z"/>
<path d="M5805 3730 c-3 -5 -2 -10 4 -10 5 0 13 5 16 10 3 6 2 10 -4 10 -5 0
-13 -4 -16 -10z"/>
<path d="M1848 3704 c-16 -8 -28 -16 -28 -18 0 -9 51 8 61 20 15 18 1 17 -33
-2z"/>
<path d="M3087 3708 c-43 -34 -19 -110 44 -142 61 -30 65 -26 65 69 l-1 85
-46 0 c-25 0 -53 -6 -62 -12z"/>
<path d="M4825 3706 c77 -7 142 -11 144 -9 11 8 -15 11 -144 16 l-140 5 140
-12z"/>
<path d="M5070 3709 c0 -24 -12 -26 -135 -23 l-110 2 150 -24 c83 -13 206 -35
274 -49 68 -15 125 -24 128 -22 2 3 -31 13 -74 22 -43 10 -96 24 -118 31 -39
13 -39 14 -5 8 19 -4 32 -3 28 1 -5 5 -25 9 -45 11 -21 1 -54 3 -73 4 -29 2
-31 3 -12 8 21 6 22 9 8 27 -13 17 -15 17 -16 4z"/>
<path d="M5720 3711 c0 -9 41 -23 48 -16 2 2 1 8 -3 14 -8 13 -45 15 -45 2z"/>
<path d="M1434 3689 c-18 -21 -11 -23 34 -11 22 7 22 7 3 19 -16 10 -22 9 -37
-8z"/>
<path d="M2595 3700 l-30 -8 32 -1 c17 0 35 4 38 9 7 11 3 11 -40 0z"/>
<path d="M970 3680 c5 -9 7 -20 3 -23 -3 -4 2 -9 11 -13 9 -3 13 -10 10 -15
-3 -5 -1 -9 4 -9 13 0 13 58 -1 67 -24 15 -37 12 -27 -7z"/>
<path d="M5640 3690 c0 -4 9 -10 20 -13 11 -3 20 -2 20 3 0 4 -9 10 -20 13
-11 3 -20 2 -20 -3z"/>
<path d="M5800 3690 c0 -4 6 -10 13 -13 109 -44 117 -46 117 -34 0 7 -29 22
-65 34 -36 12 -65 18 -65 13z"/>
<path d="M2255 3680 c-3 -5 1 -10 10 -10 9 0 13 5 10 10 -3 6 -8 10 -10 10 -2
0 -7 -4 -10 -10z"/>
<path d="M5690 3681 c0 -6 13 -11 29 -11 16 0 32 -6 34 -12 3 -8 6 -6 6 5 1 9
-5 17 -11 17 -7 0 -23 3 -35 6 -14 4 -23 2 -23 -5z"/>
<path d="M1680 3670 c0 -5 5 -10 10 -10 6 0 10 5 10 10 0 6 -4 10 -10 10 -5 0
-10 -4 -10 -10z"/>
<path d="M1765 3670 c-3 -5 1 -10 10 -10 9 0 13 5 10 10 -3 6 -8 10 -10 10 -2
0 -7 -4 -10 -10z"/>
<path d="M4610 3670 c-13 -8 -12 -10 3 -10 23 0 22 -12 -3 -33 -20 -17 -29
-64 -10 -52 6 3 10 1 10 -4 0 -6 -4 -11 -9 -11 -11 0 -31 -86 -31 -132 0 -25
3 -29 20 -25 32 8 34 -12 3 -25 -32 -13 -29 -13 -63 -4 -14 3 -6 -3 17 -13 23
-11 67 -36 98 -55 30 -20 60 -36 67 -36 14 0 -31 40 -46 40 -6 0 -21 8 -33 18
-22 16 -20 17 75 17 59 0 96 -4 96 -10 -1 -5 -5 -25 -9 -42 l-7 -33 136 0
c134 0 136 0 137 23 13 191 0 226 -86 234 -61 5 -70 5 -90 -2 -19 -6 -20 -3
-15 57 l5 63 -60 22 c-64 24 -177 31 -205 13z"/>
<path d="M1110 3660 c0 -5 5 -10 11 -10 5 0 7 5 4 10 -3 6 -8 10 -11 10 -2 0
-4 -4 -4 -10z"/>
<path d="M1593 3660 c-17 -7 -53 -56 -53 -72 0 -2 20 -3 44 -3 31 0 42 3 35
11 -11 14 -1 24 16 18 7 -3 16 -1 20 5 3 6 15 11 26 11 19 0 19 0 -1 20 -21
21 -51 25 -87 10z"/>
<path d="M2410 3660 c-20 -6 -21 -8 -5 -8 11 0 29 3 40 8 25 11 -1 11 -35 0z"/>
<path d="M742 3640 c-57 -10 -106 -21 -109 -24 -3 -3 7 -10 22 -16 26 -10 27
-11 10 -24 -18 -13 -17 -14 11 -19 77 -15 117 -18 155 -12 45 8 47 23 6 43
-15 7 -27 16 -27 20 0 15 17 31 40 41 36 14 9 12 -108 -9z"/>
<path d="M5265 3652 c6 -5 24 -13 40 -16 19 -5 26 -4 20 2 -5 5 -23 13 -40 16
-19 5 -26 4 -20 -2z"/>
<path d="M1965 3640 l-30 -8 30 0 c17 0 39 3 50 8 l20 9 -20 -1 c-11 0 -33 -4
-50 -8z"/>
<path d="M1485 3630 c-3 -5 -2 -10 4 -10 5 0 13 5 16 10 3 6 2 10 -4 10 -5 0
-13 -4 -16 -10z"/>
<path d="M5340 3632 c0 -5 39 -19 88 -32 48 -12 145 -38 215 -56 71 -19 133
-34 138 -34 18 0 8 18 -13 24 -19 5 -21 8 -8 16 13 8 12 10 -2 10 -10 0 -18
-4 -18 -10 0 -5 -5 -10 -11 -10 -5 0 -8 4 -4 9 7 12 -59 26 -74 16 -6 -3 -11
-1 -11 5 0 8 -9 10 -25 6 -14 -4 -25 -2 -25 3 0 5 -15 9 -34 9 -18 0 -43 5
-55 11 -11 7 -21 9 -21 5 0 -3 -7 -1 -15 6 -8 7 -22 10 -30 6 -8 -3 -15 0 -15
5 0 6 -9 9 -20 6 -11 -3 -23 -1 -26 4 -7 11 -34 12 -34 1z"/>
<path d="M837 3623 c-16 -15 -4 -23 36 -23 39 1 41 2 23 15 -21 16 -48 20 -59
8z"/>
<path d="M2265 3625 c-5 -2 -43 -14 -82 -25 -40 -12 -70 -26 -67 -31 3 -5 10
-6 16 -3 5 3 47 19 91 35 45 15 75 28 67 28 -8 0 -19 -2 -25 -4z"/>
<path d="M3865 3612 c6 -4 10 -18 10 -32 0 -21 6 -26 45 -33 72 -14 74 -13 75
8 0 27 47 28 51 2 2 -12 -2 -17 -11 -13 -9 3 -12 0 -8 -10 3 -8 19 -14 39 -14
19 0 37 -1 41 -2 4 -2 7 13 7 32 0 19 5 38 10 42 19 13 2 15 -134 21 -74 4
-130 3 -125 -1z"/>
<path d="M582 3603 c-29 -6 -19 -23 14 -23 15 0 24 6 24 15 0 8 -3 14 -7 14
-5 -1 -18 -4 -31 -6z"/>
<path d="M4190 3590 c0 -19 3 -21 12 -12 9 9 9 15 0 24 -9 9 -12 7 -12 -12z"/>
<path d="M1000 3590 c0 -5 5 -10 10 -10 6 0 10 5 10 10 0 6 -4 10 -10 10 -5 0
-10 -4 -10 -10z"/>
<path d="M4295 3580 c3 -5 8 -10 11 -10 2 0 4 5 4 10 0 6 -5 10 -11 10 -5 0
-7 -4 -4 -10z"/>
<path d="M5835 3580 c11 -5 31 -8 45 -8 l25 0 -25 8 c-14 4 -34 8 -45 8 l-20
1 20 -9z"/>
<path d="M1245 3549 c-48 -18 -48 -19 -12 -13 21 3 45 8 53 11 8 3 14 0 14 -6
0 -6 6 -11 13 -11 7 0 13 9 13 20 0 25 -16 24 -81 -1z"/>
<path d="M3767 3553 c-24 -6 -11 -23 18 -23 29 0 41 16 19 24 -9 3 -16 5 -17
5 -1 -1 -10 -3 -20 -6z"/>
<path d="M2060 3540 c0 -6 -11 -16 -25 -22 -14 -6 -24 -17 -21 -24 3 -7 -3
-15 -12 -19 -14 -5 -14 -7 -2 -15 13 -8 12 -10 -3 -10 -10 0 -15 -4 -12 -10
11 -18 33 -10 39 15 3 13 22 40 41 60 31 30 33 35 15 35 -11 0 -20 -5 -20 -10z"/>
<path d="M532 3530 c5 -17 201 -100 220 -94 10 3 18 0 18 -6 0 -6 12 -2 26 9
15 12 35 21 45 21 34 0 30 21 -8 37 -69 30 -309 56 -301 33z"/>
<path d="M3052 3521 c-23 -19 -29 -46 -12 -56 10 -6 19 9 24 42 2 10 10 17 19
15 8 -1 18 2 22 8 11 17 -31 11 -53 -9z"/>
<path d="M4180 3522 c0 -14 6 -22 16 -22 14 0 15 3 3 18 -7 9 -15 19 -16 21
-2 2 -3 -5 -3 -17z"/>
<path d="M2506 3505 c-23 -35 -20 -43 17 -50 38 -8 113 -54 146 -89 22 -24 41
-28 156 -39 17 -2 21 6 25 49 l5 52 -55 30 c-57 32 -197 72 -248 72 -21 0 -35
-8 -46 -25z"/>
<path d="M5860 3520 c20 -13 43 -13 35 0 -3 6 -16 10 -28 10 -18 0 -19 -2 -7
-10z"/>
<path d="M878 3513 c6 -2 18 -2 25 0 6 3 1 5 -13 5 -14 0 -19 -2 -12 -5z"/>
<path d="M1708 3499 c57 -26 105 -34 100 -18 -3 9 -16 13 -34 11 -41 -5 -22
10 23 18 26 4 13 6 -44 6 l-81 -1 36 -16z"/>
<path d="M4285 3499 c-4 -6 -5 -13 -2 -16 7 -7 27 6 27 18 0 12 -17 12 -25 -2z"/>
<path d="M1270 3490 c0 -5 11 -10 24 -10 14 0 28 5 31 10 4 6 -7 10 -24 10
-17 0 -31 -4 -31 -10z"/>
<path d="M1978 3493 c7 -3 16 -2 19 1 4 3 -2 6 -13 5 -11 0 -14 -3 -6 -6z"/>
<path d="M3098 3478 c2 -10 13 -18 24 -18 10 0 16 5 13 10 -3 6 -1 10 6 10 22
0 -1 13 -25 15 -17 0 -22 -4 -18 -17z"/>
<path d="M1870 3478 c-44 -11 -44 -11 -17 -19 29 -8 77 6 77 23 0 9 0 9 -60
-4z"/>
<path d="M3606 3482 c-3 -6 0 -25 8 -43 11 -27 16 -30 21 -17 14 36 -11 88
-29 60z"/>
<path d="M5915 3480 c-3 -5 -1 -10 4 -10 6 0 11 5 11 10 0 6 -2 10 -4 10 -3 0
-8 -4 -11 -10z"/>
<path d="M1100 3468 c0 -5 1 -8 3 -8 45 -9 107 -9 107 -2 0 6 -25 12 -55 14
-30 1 -55 0 -55 -4z"/>
<path d="M3648 3440 c-2 -22 0 -44 5 -49 4 -4 34 2 66 15 79 32 215 54 334 54
55 0 98 2 96 4 -2 2 -77 6 -166 10 -132 5 -163 4 -163 -7 0 -11 -11 -11 -62
-1 -100 21 -105 20 -110 -26z"/>
<path d="M4198 3453 c12 -2 30 -2 40 0 9 3 -1 5 -23 4 -22 0 -30 -2 -17 -4z"/>
<path d="M1274 3431 c10 -11 16 -23 13 -28 -8 -14 16 -28 52 -30 35 -1 32 9
-11 31 -12 7 -22 20 -22 29 1 12 -6 17 -24 17 -24 0 -24 -1 -8 -19z"/>
<path d="M4261 3446 c2 -2 22 -6 44 -9 28 -5 34 -4 20 3 -19 8 -73 14 -64 6z"/>
<path d="M810 3425 c0 -12 16 -15 77 -15 93 0 86 15 -9 23 -56 5 -68 4 -68 -8z"/>
<path d="M1150 3436 c0 -9 97 -62 108 -58 18 6 14 22 -6 22 -9 0 -34 9 -55 20
-36 20 -47 23 -47 16z"/>
<path d="M5745 3430 c-11 -4 -27 -17 -36 -27 -22 -27 -41 -110 -34 -144 l7
-29 93 0 c51 0 107 -3 124 -6 l31 -6 0 111 0 111 -82 -1 c-46 0 -92 -4 -103
-9z"/>
<path d="M4358 3423 c7 -3 16 -2 19 1 4 3 -2 6 -13 5 -11 0 -14 -3 -6 -6z"/>
<path d="M3121 3404 c0 -11 3 -14 6 -6 3 7 2 16 -1 19 -3 4 -6 -2 -5 -13z"/>
<path d="M3154 3404 c3 -9 6 -18 6 -20 0 -13 18 -1 22 14 4 12 -1 18 -14 19
-14 1 -18 -3 -14 -13z"/>
<path d="M3092 3380 c0 -14 2 -19 5 -12 2 6 2 18 0 25 -3 6 -5 1 -5 -13z"/>
<path d="M5186 3388 c-3 -7 -7 -40 -10 -73 l-6 -60 20 40 c11 22 30 48 41 57
12 10 19 24 15 33 -7 18 -55 20 -60 3z"/>
<path d="M5395 3394 c21 -8 155 -20 155 -14 0 4 -24 10 -52 14 -57 6 -119 7
-103 0z"/>
<path d="M797 3350 c5 -20 15 -25 26 -14 6 6 -16 34 -26 34 -3 0 -3 -9 0 -20z"/>
<path d="M1194 3361 c12 -19 66 -34 80 -22 10 8 21 6 47 -12 73 -49 141 -88
146 -83 8 8 -7 26 -22 26 -14 0 -29 45 -20 60 6 9 -8 14 -27 11 -5 0 -8 3 -8
7 0 4 -19 9 -42 11 -23 1 -44 4 -47 6 -2 3 -10 0 -17 -6 -10 -8 -22 -8 -45 0
-38 13 -52 14 -45 2z m196 -36 c16 -19 0 -19 -26 0 -16 12 -16 14 -3 15 9 0
22 -7 29 -15z"/>
<path d="M3165 3350 c3 -5 8 -10 11 -10 2 0 4 5 4 10 0 6 -5 10 -11 10 -5 0
-7 -4 -4 -10z"/>
<path d="M5118 3347 c-14 -11 -38 -67 -38 -88 0 -5 11 -9 24 -9 21 0 25 6 31
51 8 57 5 64 -17 46z"/>
<path d="M1035 3325 c44 -8 89 -14 100 -14 18 0 17 1 -5 14 -16 9 -52 14 -100
13 l-75 0 80 -13z"/>
<path d="M1500 3310 c0 -5 7 -10 16 -10 8 0 12 5 9 10 -3 6 -10 10 -16 10 -5
0 -9 -4 -9 -10z"/>
<path d="M1090 3295 c0 -2 26 -12 58 -21 31 -8 76 -23 100 -31 23 -9 45 -13
48 -10 8 8 -78 46 -116 52 -17 3 -43 7 -60 10 -16 2 -30 2 -30 0z"/>
<path d="M5447 3293 c-4 -3 -7 -17 -7 -30 0 -22 3 -23 70 -23 63 0 70 2 70 19
0 16 -9 21 -47 26 -27 4 -55 9 -64 11 -8 2 -18 1 -22 -3z"/>
<path d="M1515 3241 c5 -40 2 -37 49 -56 37 -16 38 -16 31 2 -4 10 -10 28 -12
41 -5 22 -14 26 -42 22 -8 -1 -18 4 -22 12 -5 8 -7 0 -4 -21z"/>
<path d="M2466 3251 c-3 -4 32 -36 77 -72 l82 -67 98 -6 c53 -4 97 -5 97 -2 0
2 -11 24 -25 49 -21 37 -34 48 -72 61 -26 9 -67 16 -92 16 -25 0 -72 6 -104
14 -31 7 -59 11 -61 7z"/>
<path d="M4767 3216 c25 -21 41 -24 151 -29 120 -5 124 -5 131 16 5 14 4 25
-3 29 -18 12 -268 10 -261 -2 3 -5 2 -10 -4 -10 -5 0 -13 5 -16 10 -3 6 -11
10 -16 10 -6 0 2 -11 18 -24z"/>
<path d="M5070 3209 c0 -17 4 -20 23 -15 12 3 25 6 30 6 4 0 7 7 7 15 0 10
-10 15 -30 15 -24 0 -30 -4 -30 -21z"/>
<path d="M5437 3199 c-9 -34 -1 -39 67 -39 60 0 64 2 68 24 6 29 0 32 -73 35
-51 2 -57 0 -62 -20z"/>
<path d="M1270 3200 c20 -13 33 -13 25 0 -3 6 -14 10 -23 10 -15 0 -15 -2 -2
-10z"/>
<path d="M2460 3176 c0 -38 5 -41 76 -51 31 -5 45 -4 39 2 -24 23 -103 83
-109 83 -3 0 -6 -15 -6 -34z"/>
<path d="M5670 3185 c0 -30 10 -33 153 -38 l107 -4 0 27 0 27 -97 6 c-161 11
-163 11 -163 -18z"/>
<path d="M3073 3193 c9 -2 25 -2 35 0 9 3 1 5 -18 5 -19 0 -27 -2 -17 -5z"/>
<path d="M3170 3190 c0 -5 5 -10 10 -10 6 0 10 5 10 10 0 6 -4 10 -10 10 -5 0
-10 -4 -10 -10z"/>
<path d="M3893 3149 c-6 -28 -7 -47 -3 -42 9 9 24 93 17 93 -2 0 -9 -23 -14
-51z"/>
<path d="M1310 3187 c0 -8 152 -78 157 -73 3 3 -21 18 -53 34 -62 31 -104 47
-104 39z"/>
<path d="M3140 3181 c0 -6 4 -13 10 -16 6 -3 7 1 4 9 -7 18 -14 21 -14 7z"/>
<path d="M4820 3157 c8 -7 28 -29 43 -49 15 -21 33 -38 38 -38 6 0 1 12 -11
28 l-22 27 44 4 c34 2 39 5 23 11 -14 6 -5 9 33 9 57 1 63 -7 35 -49 -9 -14
-10 -19 -3 -12 22 19 31 14 24 -13 -4 -16 -2 -25 6 -25 8 0 11 12 8 34 -2 19
0 34 5 33 5 -1 12 4 15 12 3 10 0 12 -13 7 -12 -4 -16 -2 -12 8 7 19 -34 26
-142 26 -69 -1 -83 -3 -71 -13z m73 -14 c-7 -2 -21 -2 -30 0 -10 3 -4 5 12 5
17 0 24 -2 18 -5z"/>
<path d="M3145 3129 c-22 -17 -59 -49 -83 -71 -25 -24 -49 -38 -58 -34 -12 5
-12 2 0 -22 34 -62 105 -102 216 -122 74 -13 135 0 143 30 2 10 -12 58 -33
106 l-37 89 -45 -3 c-31 -2 -49 2 -58 13 -8 10 -9 15 -1 15 6 0 11 7 11 15 0
21 -9 18 -55 -16z"/>
<path d="M5065 3152 c6 -5 19 -12 30 -15 19 -4 19 -5 -1 -6 -16 -1 -24 -11
-32 -41 -11 -44 -8 -50 24 -50 19 0 23 7 29 51 4 27 5 52 4 54 -2 2 -18 7 -34
10 -21 5 -27 4 -20 -3z"/>
<path d="M4730 3116 l0 -38 19 23 c13 16 16 25 8 28 -7 2 -15 9 -19 15 -4 6
-8 -6 -8 -28z"/>
<path d="M5430 3126 c0 -20 6 -22 78 -30 62 -7 62 -7 62 19 0 24 -2 25 -70 25
-54 0 -70 -3 -70 -14z m127 -12 c-3 -3 -12 -4 -19 -1 -8 3 -5 6 6 6 11 1 17
-2 13 -5z"/>
<path d="M5665 3120 c3 -5 44 -10 90 -10 46 0 86 -4 89 -9 3 -4 -8 -7 -24 -5
-35 4 -38 -8 -10 -36 15 -15 33 -20 70 -20 46 0 50 2 50 24 0 21 -5 25 -37 29
l-38 4 38 1 c20 1 37 6 37 11 0 13 -64 21 -173 21 -63 0 -96 -4 -92 -10z"/>
<path d="M4260 3110 c20 -13 40 -13 40 0 0 6 -12 10 -27 10 -22 0 -25 -2 -13
-10z"/>
<path d="M1490 3104 c0 -6 286 -144 298 -143 8 0 -279 148 -290 148 -5 1 -8
-2 -8 -5z"/>
<path d="M2860 3090 c0 -19 3 -21 12 -12 9 9 9 15 0 24 -9 9 -12 7 -12 -12z"/>
<path d="M5240 3098 c0 -15 19 -38 31 -38 3 0 6 10 5 22 -1 24 -36 39 -36 16z"/>
<path d="M5674 3076 c-3 -14 -4 -33 -2 -43 2 -13 9 -6 24 25 20 40 21 42 3 42
-11 0 -21 -9 -25 -24z"/>
<path d="M2810 3080 c0 -5 5 -10 10 -10 6 0 10 5 10 10 0 6 -4 10 -10 10 -5 0
-10 -4 -10 -10z"/>
<path d="M5450 3080 c0 -5 7 -10 16 -10 8 0 12 5 9 10 -3 6 -10 10 -16 10 -5
0 -9 -4 -9 -10z"/>
<path d="M1369 2958 c-57 -66 -135 -157 -174 -201 -38 -43 -104 -119 -145
-167 -150 -176 -310 -357 -379 -430 -70 -74 -81 -90 -61 -90 6 0 10 -7 10 -15
0 -8 -6 -12 -13 -10 -6 2 -20 -7 -31 -21 -18 -26 -18 -26 3 -19 11 3 21 3 21
-2 0 -12 -76 -53 -97 -53 -10 0 -59 -46 -113 -106 -52 -59 -161 -181 -242
-271 l-148 -164 0 -705 0 -704 2965 0 2965 0 0 1040 0 1040 -32 -6 c-18 -3
-47 -10 -64 -15 -18 -6 -145 -10 -283 -10 l-251 -1 -19 -24 c-10 -13 -24 -24
-30 -24 -6 0 -11 -4 -11 -10 0 -5 -3 -9 -7 -8 -11 2 -63 -20 -63 -27 0 -4 5
-3 10 0 17 10 11 -12 -7 -26 -11 -10 -14 -10 -9 -1 4 7 1 12 -8 12 -9 0 -13
-6 -10 -14 3 -8 -21 -31 -66 -62 -137 -93 -185 -123 -203 -123 -10 -1 -16 -5
-12 -10 5 -8 -45 -45 -127 -96 -15 -9 -56 -38 -289 -202 -72 -51 -95 -72 -91
-85 3 -14 -7 -23 -43 -39 -73 -32 -82 -24 -150 136 -35 84 -74 156 -99 188
-48 60 -83 112 -68 104 5 -4 26 -31 47 -62 21 -30 40 -53 42 -51 2 2 -51 139
-118 304 l-122 300 -40 6 c-22 4 -41 5 -44 3 -5 -5 57 -168 70 -185 5 -7 13
-30 17 -53 6 -34 4 -42 -13 -54 -20 -14 -24 -12 -59 22 -20 20 -35 40 -32 45
7 10 -76 226 -96 251 -12 14 -284 78 -311 73 -18 -3 -32 1 -44 14 -9 10 -31
22 -49 26 -112 24 -666 218 -664 233 2 18 -3 24 -11 12 -8 -12 -34 -4 -148 43
-76 32 -172 74 -213 93 -41 19 -119 50 -174 69 -55 19 -181 73 -280 121 -100
47 -204 96 -232 109 l-51 22 -104 -120z m-679 -876 c0 -14 -23 -32 -42 -32
-21 0 -22 6 -5 25 13 15 47 20 47 7z m2707 -88 c-3 -3 -12 -4 -19 -1 -8 3 -5
6 6 6 11 1 17 -2 13 -5z m554 -191 c23 -32 36 -53 28 -46 -17 14 -83 103 -76
103 3 0 24 -26 48 -57z m-3123 -1648 c-12 -27 -23 -31 -34 -13 -4 6 1 17 11
25 28 20 36 16 23 -12z"/>
<path d="M2730 3059 c-11 -7 -12 -12 -3 -15 6 -3 30 -18 52 -35 53 -38 73 -37
36 1 l-29 30 27 0 c15 0 27 5 27 11 0 7 -12 10 -29 7 -17 -2 -28 -1 -25 4 8
12 -38 10 -56 -3z"/>
<path d="M2706 3014 c-9 -23 -9 -22 27 -26 23 -2 32 -8 31 -20 -1 -14 6 -18
30 -18 l31 1 -30 25 c-16 14 -42 31 -57 39 -23 13 -27 13 -32 -1z"/>
<path d="M5280 3021 c0 -17 15 -19 45 -6 l30 13 -37 1 c-21 1 -38 -3 -38 -8z"/>
<path d="M1944 2986 c16 -13 39 -29 50 -34 80 -37 91 -40 104 -30 16 14 12 59
-8 75 -18 15 -60 17 -60 3 0 -18 -48 -22 -81 -5 l-34 16 29 -25z m139 -2 c10
-10 -16 -42 -30 -37 -20 8 -16 43 5 43 10 0 21 -3 25 -6z"/>
<path d="M2346 2987 c3 -9 11 -14 18 -11 6 2 20 -2 31 -10 14 -11 16 -15 6
-16 -11 0 -9 -5 5 -22 19 -21 19 -21 -6 -14 -14 5 -40 10 -58 13 -27 4 -31 2
-26 -11 4 -11 0 -16 -14 -16 -11 0 -22 -5 -24 -12 -3 -7 -12 -6 -31 6 -14 10
-32 16 -39 13 -8 -4 -6 -6 5 -6 9 -1 17 -8 17 -16 0 -9 8 -19 18 -22 14 -6 13
-8 -7 -13 l-24 -6 27 -17 c15 -10 89 -41 164 -68 188 -70 175 -67 160 -35 -10
23 -9 29 3 37 18 11 69 12 69 0 0 -5 -6 -8 -12 -7 -7 0 -13 -3 -13 -9 0 -5 14
-10 30 -10 28 0 30 -2 27 -36 l-3 -36 88 -33 c89 -33 125 -53 82 -44 -20 3
-19 2 6 -10 17 -9 37 -15 45 -16 8 0 51 -16 95 -35 44 -19 91 -35 104 -35 13
0 48 -12 78 -26 39 -19 57 -24 65 -16 8 8 6 15 -6 27 -18 18 -20 31 -8 39 15
9 29 -9 36 -46 4 -21 11 -38 16 -38 5 0 7 7 4 15 -6 16 34 85 49 85 5 0 5 -5
1 -12 -4 -6 1 -17 10 -24 16 -11 16 -15 1 -43 -8 -17 -20 -31 -26 -31 -22 0
11 -28 39 -33 15 -3 81 -21 147 -41 66 -20 123 -36 127 -36 12 0 -49 124 -63
129 -36 11 -122 52 -118 56 3 2 21 0 41 -4 37 -9 78 3 48 13 -8 3 -24 6 -35 8
-10 2 -28 20 -39 41 -12 22 -38 49 -61 63 -37 21 -194 75 -372 126 -51 15 -73
26 -73 37 0 12 -2 13 -8 3 -6 -9 -29 -4 -98 21 -73 27 -89 37 -86 53 2 18 2
18 -11 2 -13 -16 -27 -12 -198 58 -101 41 -190 78 -197 81 -8 3 -10 0 -6 -10z
m504 -336 c0 -16 -30 -33 -46 -27 -13 5 -14 9 -4 21 13 16 50 21 50 6z"/>
<path d="M5282 2970 c-7 -11 -9 -20 -4 -20 4 0 20 -12 35 -26 27 -25 36 -27
89 -21 47 6 42 15 -14 22 -56 8 -76 18 -87 47 -6 17 -7 16 -19 -2z"/>
<path d="M2168 2923 c7 -3 16 -2 19 1 4 3 -2 6 -13 5 -11 0 -14 -3 -6 -6z"/>
<path d="M3528 2922 c-32 -4 -35 -18 -9 -51 13 -18 23 -22 40 -16 19 6 22 12
16 33 -8 34 -14 38 -47 34z"/>
<path d="M2246 2908 c3 -4 9 -8 15 -8 5 0 9 4 9 8 0 5 -7 9 -15 9 -8 0 -12 -4
-9 -9z"/>
<path d="M3055 2893 c14 -16 28 -37 31 -48 4 -11 20 -32 37 -47 51 -46 150
-36 200 20 17 19 17 20 -5 26 -13 3 -38 6 -57 6 -46 0 -150 28 -189 51 -44 26
-48 24 -17 -8z"/>
<path d="M2130 2895 c33 -19 49 -19 24 0 -10 8 -26 14 -34 14 -9 0 -4 -6 10
-14z"/>
<path d="M4734 2884 c-18 -14 -18 -15 4 -4 12 6 22 13 22 15 0 8 -5 6 -26 -11z"/>
<path d="M4675 2861 c-11 -4 -42 -18 -69 -30 -27 -13 -81 -29 -120 -36 -63
-12 -66 -13 -28 -14 29 -1 50 -8 65 -22 l22 -22 -28 5 c-31 6 -29 12 -47 -124
-12 -90 -10 -108 17 -108 8 0 13 -6 10 -13 -3 -8 -2 -19 3 -26 10 -17 111 -28
180 -21 l54 5 12 45 c7 25 15 57 18 73 4 15 10 27 15 27 5 0 7 -9 4 -20 -4
-13 0 -20 9 -20 10 0 14 9 11 33 -2 24 -1 27 5 13 6 -14 11 -16 16 -7 4 6 3
18 -3 25 -7 9 -7 16 1 24 9 9 7 12 -10 12 -17 0 -22 -6 -22 -27 0 -41 -12 -19
-16 29 -6 62 -8 66 -56 78 -41 11 -42 13 -23 27 20 16 20 16 0 8 -39 -15 -65
-17 -65 -6 0 6 -12 11 -27 11 -44 0 -61 16 -26 24 30 8 133 56 133 62 0 5 -10
4 -35 -5z"/>
<path d="M3865 2840 c-8 -12 29 -127 50 -154 8 -11 21 -16 30 -13 8 4 15 2 15
-3 0 -6 9 -10 20 -10 22 0 34 22 44 86 l7 42 -58 16 c-32 8 -43 14 -25 11 17
-3 47 -7 65 -10 17 -3 3 3 -33 13 -36 11 -75 22 -87 26 -12 4 -24 2 -28 -4z"/>
<path d="M3530 2830 c0 -12 27 -12 55 0 16 7 13 9 -17 9 -21 1 -38 -3 -38 -9z"/>
<path d="M5380 2838 c-33 -224 -36 -212 65 -213 l60 0 9 78 c8 72 16 91 31 67
3 -5 11 -10 16 -10 5 0 1 10 -11 22 -11 12 -20 27 -20 34 0 14 -148 35 -150
22z m24 -39 c-3 -5 -10 -7 -15 -3 -5 3 -7 10 -3 15 3 5 10 7 15 3 5 -3 7 -10
3 -15z"/>
<path d="M5845 2794 c-13 -10 -47 -14 -111 -14 l-92 0 -4 -57 c-4 -42 -10 -61
-26 -74 -30 -24 -30 -53 1 -45 12 3 71 17 131 31 61 14 127 30 148 36 l39 10
-3 51 c-3 47 -6 53 -33 64 -25 10 -34 10 -50 -2z"/>
<path d="M2236 2791 c14 -15 238 -101 262 -101 35 0 -8 21 -119 59 -62 21
-123 42 -134 46 -16 6 -17 5 -9 -4z"/>
<path d="M4058 2793 c6 -2 18 -2 25 0 6 3 1 5 -13 5 -14 0 -19 -2 -12 -5z"/>
<path d="M4128 2783 c7 -3 16 -2 19 1 4 3 -2 6 -13 5 -11 0 -14 -3 -6 -6z"/>
<path d="M5036 2753 c-6 -49 -5 -73 5 -73 12 0 16 11 23 63 6 38 4 47 -8 47
-9 0 -16 -14 -20 -37z"/>
<path d="M4089 2761 c10 -6 11 -13 2 -29 -6 -11 -11 -27 -10 -34 0 -7 5 -3 11
10 7 14 20 22 37 22 l26 1 -25 14 c-25 14 -25 15 10 10 27 -4 30 -3 15 4 -26
12 -85 14 -66 2z"/>
<path d="M5108 2707 c-3 -15 -1 -30 4 -33 16 -10 20 4 11 33 l-10 28 -5 -28z"/>
<path d="M3275 2710 c27 -12 43 -12 25 0 -8 5 -22 9 -30 9 -10 0 -8 -3 5 -9z"/>
<path d="M3328 2693 c7 -3 16 -2 19 1 4 3 -2 6 -13 5 -11 0 -14 -3 -6 -6z"/>
<path d="M3368 2683 c7 -3 16 -2 19 1 4 3 -2 6 -13 5 -11 0 -14 -3 -6 -6z"/>
<path d="M4080 2661 c0 -6 4 -13 10 -16 6 -3 7 1 4 9 -7 18 -14 21 -14 7z"/>
<path d="M5045 2660 c3 -5 8 -10 11 -10 2 0 4 5 4 10 0 6 -5 10 -11 10 -5 0
-7 -4 -4 -10z"/>
<path d="M5102 2637 c-16 -38 -17 -37 28 -37 44 0 54 14 16 24 -14 3 -26 14
-29 24 -3 13 -6 11 -15 -11z"/>
<path d="M3423 2635 c-10 -10 -5 -13 25 -13 20 0 30 3 22 6 -8 2 -19 8 -25 12
-5 5 -15 2 -22 -5z"/>
<path d="M4185 2640 c-3 -5 -1 -10 4 -10 6 0 11 5 11 10 0 6 -2 10 -4 10 -3 0
-8 -4 -11 -10z"/>
<path d="M4890 2641 c0 -6 4 -11 9 -11 5 0 12 -10 14 -22 4 -16 5 -14 4 6 -2
27 -27 52 -27 27z"/>
<path d="M5815 2619 c-49 -10 -123 -26 -162 -35 l-73 -16 4 -31 c7 -47 16 -69
44 -99 31 -33 90 -48 106 -26 6 8 18 17 26 21 16 7 47 26 64 40 25 19 82 51
91 52 6 0 11 26 13 58 3 66 13 63 -113 36z"/>
<path d="M4975 2619 c-4 -6 -5 -12 -2 -15 2 -3 7 2 10 11 7 17 1 20 -8 4z"/>
<path d="M4896 2565 c-3 -8 -1 -15 4 -15 6 0 10 7 10 15 0 8 -2 15 -4 15 -2 0
-6 -7 -10 -15z"/>
<path d="M3640 2560 c0 -5 5 -10 11 -10 5 0 7 5 4 10 -3 6 -8 10 -11 10 -2 0
-4 -4 -4 -10z"/>
<path d="M3690 2550 c8 -5 20 -10 25 -10 6 0 3 5 -5 10 -8 5 -19 10 -25 10 -5
0 -3 -5 5 -10z"/>
<path d="M5305 2540 c3 -5 8 -10 11 -10 2 0 4 5 4 10 0 6 -5 10 -11 10 -5 0
-7 -4 -4 -10z"/>
<path d="M5413 2523 c9 -2 25 -2 35 0 9 3 1 5 -18 5 -19 0 -27 -2 -17 -5z"/>
<path d="M5849 2440 c-30 -27 -58 -50 -63 -50 -4 0 -24 -13 -43 -30 -18 -16
-40 -30 -47 -30 -7 0 -19 -11 -26 -25 -7 -14 -19 -25 -27 -25 -13 0 -53 -35
-53 -46 0 -4 11 1 25 10 14 9 30 14 35 11 6 -3 10 -2 10 4 0 5 12 11 28 13 15
2 27 8 27 15 0 21 54 72 82 78 16 3 42 10 59 15 17 6 40 10 52 10 20 0 22 5
22 50 0 35 -4 50 -14 50 -7 0 -37 -22 -67 -50z"/>
<path d="M3989 2466 c7 -8 19 -12 27 -9 8 3 14 -1 14 -8 0 -10 14 -14 43 -15
54 -1 167 -13 176 -19 4 -2 34 -7 67 -10 32 -3 66 -8 74 -10 8 -3 38 -7 65 -9
94 -10 13 11 -150 38 -88 15 -180 31 -205 36 -109 22 -125 23 -111 6z"/>
<path d="M5210 2470 c0 -5 5 -10 11 -10 5 0 7 5 4 10 -3 6 -8 10 -11 10 -2 0
-4 -4 -4 -10z"/>
<path d="M4578 2403 c6 -2 18 -2 25 0 6 3 1 5 -13 5 -14 0 -19 -2 -12 -5z"/>
<path d="M4660 2389 c65 -20 155 -27 235 -20 l80 7 -120 7 c-65 4 -144 9 -175
12 -50 4 -52 4 -20 -6z"/>
<path d="M3724 2344 c3 -9 6 -24 6 -35 0 -16 7 -19 45 -19 44 0 44 0 33 25 -6
14 -17 24 -24 21 -7 -3 -20 2 -31 9 -24 19 -37 19 -29 -1z"/>
<path d="M4125 2340 c-8 -14 3 -30 21 -30 17 0 19 20 2 21 -7 0 -4 4 7 9 19 8
19 9 -2 9 -12 1 -25 -3 -28 -9z"/>
<path d="M4768 2343 c7 -3 16 -2 19 1 4 3 -2 6 -13 5 -11 0 -14 -3 -6 -6z"/>
<path d="M5383 2342 c-123 -1 -223 -6 -223 -10 0 -9 456 -10 465 -1 12 12 -22
14 -242 11z"/>
<path d="M5808 2333 c6 -2 18 -2 25 0 6 3 1 5 -13 5 -14 0 -19 -2 -12 -5z"/>
<path d="M5905 2290 c-3 -5 -2 -10 4 -10 5 0 13 5 16 10 3 6 2 10 -4 10 -5 0
-13 -4 -16 -10z"/>
<path d="M4050 2266 c0 -22 28 -31 155 -49 259 -37 276 -39 292 -25 14 11 15
10 9 -9 -7 -21 -5 -22 31 -16 21 3 42 10 47 14 17 16 28 10 21 -11 -7 -21 9
-50 28 -50 5 0 2 9 -8 20 -18 20 -17 20 13 20 25 0 29 3 25 20 -6 21 -33 28
-33 8 0 -6 -7 -4 -18 5 -11 10 -36 17 -58 17 -76 1 -109 5 -116 14 -4 6 -13 4
-22 -3 -13 -11 -19 -11 -32 0 -10 8 -38 12 -75 11 -36 -1 -59 3 -59 9 0 7 -18
8 -53 4 -50 -6 -75 -1 -139 33 -5 2 -8 -4 -8 -12z"/>
<path d="M5886 2229 c18 -20 40 -27 29 -9 -3 6 -1 10 4 10 6 0 11 4 11 8 0 5
-14 9 -31 10 -30 1 -30 0 -13 -19z"/>
<path d="M5515 2220 c4 -6 -1 -20 -12 -32 -18 -20 -18 -20 7 -17 14 2 34 12
44 21 10 10 23 15 27 12 5 -3 17 -1 26 5 15 8 13 9 -7 8 -14 0 -40 3 -59 7
-25 6 -32 5 -26 -4z"/>
<path d="M5850 2189 c-41 -4 -91 -14 -110 -23 -34 -16 -32 -17 75 -11 61 4
112 8 113 10 2 2 2 9 0 17 -2 10 -20 12 -78 7z"/>
<path d="M4084 2164 c14 -33 95 -262 184 -516 48 -137 92 -248 97 -248 6 0 37
21 70 46 33 25 121 89 195 142 74 53 154 111 178 129 24 18 50 33 58 33 9 0
13 4 9 9 -3 5 4 12 15 16 11 4 35 20 53 36 52 49 295 229 308 229 7 0 10 2 8
4 -2 3 -121 12 -264 20 -327 20 -318 19 -510 50 -249 40 -348 57 -379 63 -25
5 -28 3 -22 -13z"/>
<path d="M4758 2163 c6 -2 18 -2 25 0 6 3 1 5 -13 5 -14 0 -19 -2 -12 -5z"/>
<path d="M4905 2160 c-19 -8 -19 -9 3 -9 12 -1 22 4 22 9 0 6 -1 10 -2 9 -2 0
-12 -4 -23 -9z"/>
<path d="M5563 2163 c-13 -2 -23 -8 -23 -13 0 -10 37 -20 45 -12 3 3 30 4 60
3 30 -1 55 2 55 7 0 16 -26 22 -39 9 -9 -9 -16 -8 -31 1 -20 12 -27 13 -67 5z"/>
<path d="M4970 2150 c36 -11 50 -11 50 0 0 6 -17 10 -37 9 -34 -1 -35 -2 -13
-9z"/>
<path d="M5054 2148 c-3 -4 16 -8 42 -8 26 0 44 3 41 6 -10 10 -77 12 -83 2z"/>
<path d="M5470 2150 c0 -6 7 -10 15 -10 8 0 15 2 15 4 0 2 -7 6 -15 10 -8 3
-15 1 -15 -4z"/>
<path d="M5198 2143 c29 -2 74 -2 100 0 26 2 2 3 -53 3 -55 0 -76 -1 -47 -3z"/>
<path d="M5818 2133 c6 -2 18 -2 25 0 6 3 1 5 -13 5 -14 0 -19 -2 -12 -5z"/>
<path d="M5052 2114 c10 -10 20 -15 24 -12 3 4 -5 12 -18 18 -22 12 -22 12 -6
-6z"/>
<path d="M5400 2110 c-13 -11 -20 -20 -16 -20 10 0 66 30 66 35 0 12 -29 3
-50 -15z"/>
<path d="M5865 2112 c-45 -9 -37 -22 13 -22 39 0 52 4 52 15 0 14 -16 16 -65
7z"/>
<path d="M5575 2080 l-110 -6 85 -4 c112 -5 203 0 215 11 9 9 -1 9 -190 -1z"/>
</g>
</svg>
